<svg style="width:100%;height:100%;" viewBox="0 0 44 44" preserveAspectRatio="none" width="100%" height="100%" fill="#000000" stroke="null" stroke-width="1px" stroke-linecap="butt" stroke-linejoin="miter" stroke-dashoffset="0px" opacity="1" fill-opacity="1" stroke-opacity="1" font-family="sans-serif" font-size="12px" font-weight="400" text-anchor="start" dominant-baseline="auto" stop-color="#000000" stop-opacity="1"><svg width="44" height="44" fill="#000000" id="svg1335241596_672" stroke="null" stroke-width="1px" stroke-linecap="butt" stroke-linejoin="miter" stroke-dashoffset="0px" opacity="1" fill-opacity="1" stroke-opacity="1" font-family="sans-serif" font-size="12px" font-weight="400" text-anchor="start" dominant-baseline="auto" stop-color="#000000" stop-opacity="1"><path fill-rule="evenodd" clip-rule="evenodd" d="M9.845 0H2v4.113l2 2.481V2h7.458L9.845 0Zm18.967 23.528 2.216 2.758v-.01l-2.216-2.748Zm2.216-.436-2.283-2.832.283.344V0H42v36.703l-2-2.482V2h-8.972v21.092ZM40 37.406V42h-7.458l-19.57-24.286v.01L34.154 44H42v-4.113l-2-2.48ZM14.972 23.392l-2-2.482V42H4V9.78L2 7.3V44h12.972V23.392Z" fill="#fff" fill-opacity=".3"></path><path fill-rule="evenodd" clip-rule="evenodd" d="m28.812 23.528 2.216 2.758v-.01L40 37.407V42h-7.458l-19.57-24.286v.01L4 6.594V2h7.458l17.354 21.528ZM4 9.78V42h8.972V20.91L4 9.78Zm36 24.44-8.972-11.13V2H40v32.22Z" fill="#121314"></path></svg></svg>